<svg width="39" height="39" viewBox="0 0 39 39" fill="none" xmlns="http://www.w3.org/2000/svg">
<circle cx="19.5" cy="19.5" r="19.5" fill="#5F7BE1"/>
<path d="M17.4048 14.4267L19.6587 12.3869C20.6851 11.4877 22.0608 10.9897 23.4893 11.0002C24.9177 11.0107 26.2844 11.5289 27.2945 12.443C28.3046 13.3572 28.8772 14.594 28.8888 15.8868C28.9004 17.1796 28.35 18.4247 27.3565 19.3535L25.1026 21.3934" stroke="white" stroke-width="2" stroke-linecap="round" stroke-linejoin="round"/>
<path d="M20.4842 25.5736L18.2303 27.6134C17.2039 28.5126 15.8281 29.0106 14.3997 29.0001C12.9712 28.9896 11.6046 28.4714 10.5945 27.5573C9.58437 26.6431 9.01178 25.4063 9.00018 24.1135C8.98858 22.8207 9.53892 21.5756 10.5325 20.6468L12.7864 18.6069" stroke="white" stroke-width="2" stroke-linecap="round" stroke-linejoin="round"/>
<path d="M22.024 17.2129L15.8657 22.7862" stroke="white" stroke-width="2" stroke-linecap="round" stroke-linejoin="round"/>
</svg>
