<svg width="44" height="28" viewBox="0 0 44 28" fill="none" xmlns="http://www.w3.org/2000/svg">
<path d="M34 18L30.5 13.5V18H34Z" fill="#D9D9D9"/>
<path d="M34 18L30.5 13.5V18H34Z" fill="#CCEAF0"/>
<path d="M34 18L30.5 13.5V18H34Z" stroke="#A4E1EE" stroke-linecap="round"/>
<path d="M34 18L30.5 13.5V18H34Z" stroke="#CCEAF0" stroke-linecap="round"/>
<path d="M1.01812 8.97529C2.20045 2.90955 5.38586 1.72727 6.83784 1.89716C13.19 1.75774 25.6331 1.50455 32.9567 1.41612C34.0005 1.40352 34.0599 1.2912 33.281 1.98623C31.4268 3.64089 30.1604 6.98897 29.7242 8.96989C29.7093 9.03765 29.7027 9.10444 29.7027 9.17382V26C29.7027 26.5523 29.255 27 28.7027 27H2C1.44772 27 1 26.5529 1 26.0006V9.15747C1 9.09486 1.00614 9.03675 1.01812 8.97529Z" fill="#D9D9D9"/>
<path d="M1.01812 8.97529C2.20045 2.90955 5.38586 1.72727 6.83784 1.89716C13.19 1.75774 25.6331 1.50455 32.9567 1.41612C34.0005 1.40352 34.0599 1.2912 33.281 1.98623C31.4268 3.64089 30.1604 6.98897 29.7242 8.96989C29.7093 9.03765 29.7027 9.10444 29.7027 9.17382V26C29.7027 26.5523 29.255 27 28.7027 27H2C1.44772 27 1 26.5529 1 26.0006V9.15747C1 9.09486 1.00614 9.03675 1.01812 8.97529Z" fill="#CCEAF0"/>
<path d="M1.01812 8.97529C2.20045 2.90955 5.38586 1.72727 6.83784 1.89716C13.19 1.75774 25.6331 1.50455 32.9567 1.41612C34.0005 1.40352 34.0599 1.2912 33.281 1.98623C31.4268 3.64089 30.1604 6.98897 29.7242 8.96989C29.7093 9.03765 29.7027 9.10444 29.7027 9.17382V26C29.7027 26.5523 29.255 27 28.7027 27H2C1.44772 27 1 26.5529 1 26.0006V9.15747C1 9.09486 1.00614 9.03675 1.01812 8.97529Z" stroke="#A4E1EE" stroke-linecap="round"/>
<path d="M1.01812 8.97529C2.20045 2.90955 5.38586 1.72727 6.83784 1.89716C13.19 1.75774 25.6331 1.50455 32.9567 1.41612C34.0005 1.40352 34.0599 1.2912 33.281 1.98623C31.4268 3.64089 30.1604 6.98897 29.7242 8.96989C29.7093 9.03765 29.7027 9.10444 29.7027 9.17382V26C29.7027 26.5523 29.255 27 28.7027 27H2C1.44772 27 1 26.5529 1 26.0006V9.15747C1 9.09486 1.00614 9.03675 1.01812 8.97529Z" stroke="#CCEAF0" stroke-linecap="round"/>
<path d="M43.5 10C43.5 14.8186 40.4802 18.5 37 18.5C33.5198 18.5 30.5 14.8186 30.5 10C30.5 5.18136 33.5198 1.5 37 1.5C40.4802 1.5 43.5 5.18136 43.5 10Z" fill="#7EDDF1" stroke="black"/>
<path d="M39.5 10C39.5 11.0068 39.1933 11.8991 38.7213 12.5284C38.2495 13.1576 37.6358 13.5 37 13.5C36.3642 13.5 35.7505 13.1576 35.2787 12.5284C34.8067 11.8991 34.5 11.0068 34.5 10C34.5 8.99315 34.8067 8.10087 35.2787 7.47157C35.7505 6.84243 36.3642 6.5 37 6.5C37.6358 6.5 38.2495 6.84243 38.7213 7.47157C39.1933 8.10087 39.5 8.99315 39.5 10Z" fill="#B2B1E8" stroke="black"/>
<line x1="36.5" y1="1.5" x2="6.5" y2="1.5" stroke="black" stroke-linecap="round"/>
<path fill-rule="evenodd" clip-rule="evenodd" d="M1 10C1 5.33328 3.90561 2 7 2V1C3.13401 1 0 5.02944 0 10H1Z" fill="black"/>
<path d="M0.5 9.5V26C0.5 26.5523 0.947715 27 1.5 27H29.5C30.0523 27 30.5 26.5523 30.5 26V9.5" stroke="black" stroke-linecap="square" stroke-linejoin="round"/>
<path d="M37.5 18.5H30.5" stroke="black" stroke-linecap="round" stroke-linejoin="round"/>
<path d="M14 11L9 15.5" stroke="#A4E1EE" stroke-linecap="round"/>
<path d="M14 11L9 15.5" stroke="black" stroke-linecap="round"/>
<path d="M20 11L10 20" stroke="#A4E1EE" stroke-linecap="round"/>
<path d="M20 11L10 20" stroke="black" stroke-linecap="round"/>
<path d="M22 15L17 19.5" stroke="#A4E1EE" stroke-linecap="round"/>
<path d="M22 15L17 19.5" stroke="black" stroke-linecap="round"/>
<circle cx="21.5" cy="9.5" r="0.5" fill="black"/>
</svg>
