<svg width="25" height="34" viewBox="0 0 25 34" fill="none" xmlns="http://www.w3.org/2000/svg">
<path d="M12 2H10.5001C10 2.66667 9.5 4.1 9.5 4.5C11.9 6.5 11 6.83333 10.5001 7L9 7.5C9 8.33333 10 10.5 8.5 11C7.15836 11.4472 2.00005 24.5 1.50005 27.5C1.10005 29.9 3.00005 32.1667 4.00005 33C9.33339 33 20.4001 32.9 22.0001 32.5C23.6001 32.1 24.0001 28.6667 24.0001 27L18.5001 12L16.0001 10.5L16.5001 8.5L15.5 7L16.0001 5L14.5001 3.5L14.0001 2L13 1.5L12 2Z" fill="#CFCFCF" stroke="#CFCFCF"/>
<path d="M14 6.5L14.5 4L16 5.5C16 5.66667 15.8 6.14564 15 6.72821C16.6 8.51077 16.3333 9.65214 16 10C15.8333 9.83333 15.4 9.5 15 9.5C15.8 8.7 14.6667 7.16667 14 6.5Z" fill="#AEAEAE" stroke="#AEAEAE"/>
<path d="M23.4999 31C11.8999 29.4 6.66658 20.6667 5.49991 16.5C4.49991 19.6667 2.39991 26.3 1.99991 27.5C0.79991 29.5 2.83324 32 3.99991 33H21.9999C22.3332 32.5 23.0999 31.4 23.4999 31Z" fill="#AEAEAE"/>
<path d="M5.49991 16.5L5.98139 16.3652L5.5287 14.7484L5.02312 16.3494L5.49991 16.5ZM23.4999 31L23.8535 31.3536C23.9877 31.2193 24.0343 31.0207 23.9739 30.8407C23.9134 30.6608 23.7563 30.5306 23.5682 30.5047L23.4999 31ZM21.9999 33V33.5C22.1671 33.5 22.3232 33.4164 22.4159 33.2774L21.9999 33ZM3.99991 33L3.67451 33.3796L3.81495 33.5H3.99991V33ZM1.99991 27.5L2.42866 27.7572L2.4569 27.7102L2.47425 27.6581L1.99991 27.5ZM5.01843 16.6348C6.22341 20.9383 11.5835 29.8611 23.4316 31.4953L23.5682 30.5047C12.2163 28.9389 7.10974 20.395 5.98139 16.3652L5.01843 16.6348ZM23.1464 30.6464C22.9154 30.8774 22.6028 31.2824 22.3213 31.6674C22.033 32.0617 21.7538 32.4677 21.5839 32.7226L22.4159 33.2774C22.5793 33.0323 22.8502 32.6383 23.1285 32.2576C23.4137 31.8676 23.6845 31.5226 23.8535 31.3536L23.1464 30.6464ZM21.9999 32.5H3.99991V33.5H21.9999V32.5ZM4.32531 32.6204C3.77764 32.1509 3.02576 31.3259 2.55888 30.3999C2.08971 29.4693 1.95625 28.5446 2.42866 27.7572L1.57116 27.2428C0.843565 28.4554 1.12678 29.7807 1.66594 30.8501C2.2074 31.9241 3.05552 32.8491 3.67451 33.3796L4.32531 32.6204ZM2.47425 27.6581C2.87589 26.4532 4.97767 19.8142 5.9767 16.6506L5.02312 16.3494C4.02215 19.5192 1.92393 26.1468 1.52557 27.3419L2.47425 27.6581Z" fill="#AEAEAE"/>
<path d="M1.50014 27.5L1.97456 27.6581L1.97738 27.6491L1.50014 27.5ZM24.0001 26.0001L23.5258 26.1582L23.5258 26.1582L24.0001 26.0001ZM4.00014 33.0001L3.84203 33.4744C3.85417 33.4785 3.86646 33.4821 3.87887 33.4852L4.00014 33.0001ZM9.50009 7.00011V6.50011C9.42247 6.50011 9.34592 6.51818 9.27649 6.5529L9.50009 7.00011ZM14.3367 3.5L13.8397 3.44587L13.8397 3.44587L14.3367 3.5ZM17.842 22.5257C17.58 22.613 17.4384 22.8961 17.5258 23.1581C17.6131 23.4201 17.8962 23.5617 18.1582 23.4743L17.842 22.5257ZM19.3852 26.681C19.209 26.4684 18.8938 26.4388 18.6811 26.615C18.4685 26.7912 18.4389 27.1064 18.6151 27.319L19.3852 26.681ZM19.0001 33.2587L19.0209 33.7583L19.0001 33.2587ZM13.0001 9.49857L13.0241 8.99914L13.0001 9.49857ZM9.02575 13.3419C8.93843 13.6039 9.08001 13.887 9.34198 13.9743C9.60395 14.0617 9.88711 13.9201 9.97444 13.6581L9.02575 13.3419ZM9.48517 14.8787C9.41819 14.6108 9.14672 14.448 8.87883 14.5149C8.61093 14.5819 8.44805 14.8534 8.51502 15.1213L9.48517 14.8787ZM7.34198 17.5257C7.08001 17.613 6.93843 17.8961 7.02575 18.1581C7.11308 18.4201 7.39624 18.5617 7.65821 18.4743L7.34198 17.5257ZM12.979 13.8563C12.8997 13.5918 12.6209 13.4417 12.3564 13.5211C12.0919 13.6004 11.9418 13.8792 12.0212 14.1437L12.979 13.8563ZM11.7765 19.5528C11.5295 19.6763 11.4294 19.9766 11.5529 20.2236C11.6764 20.4706 11.9767 20.5707 12.2237 20.4472L11.7765 19.5528ZM15.9987 12.5373C16.0193 12.2619 15.8128 12.022 15.5374 12.0014C15.262 11.9808 15.0221 12.1873 15.0015 12.4627L15.9987 12.5373ZM18.1571 18.9747C18.4193 18.888 18.5615 18.6052 18.4748 18.343C18.3881 18.0808 18.1053 17.9386 17.8431 18.0253L18.1571 18.9747ZM4.00014 19.5L3.5359 19.3143C3.5311 19.3263 3.52676 19.3385 3.5229 19.3509L4.00014 19.5ZM12.3535 3.85359C12.5488 3.65834 12.5488 3.34176 12.3536 3.14648C12.1583 2.9512 11.8418 2.95117 11.6465 3.14641L12.3535 3.85359ZM15.7879 4.50618L15.503 4.91708L15.7879 4.50618ZM16.1125 5.77516L16.5598 5.99876L16.1125 5.77516ZM13.2592 1.0693L12.9592 1.4693L13.2592 1.0693ZM22.9141 32.6124L22.5517 32.268L22.9141 32.6124ZM21.937 33.0682L21.8854 32.5709L21.937 33.0682ZM6.53874 13.1535L6.0745 12.9678L6.53874 13.1535ZM10.0827 1.83474L9.63551 1.61113L10.0827 1.83474ZM11.16 1.65992L10.8065 2.01347L11.16 1.65992ZM11.2133 1.71319L10.8597 2.06675L11.2133 1.71319ZM12.27 1.42051L12.755 1.54178L12.27 1.42051ZM18.8847 12.3858L18.535 12.7432L18.8847 12.3858ZM19.0714 12.6452L19.5217 12.4277L19.0714 12.6452ZM9.35197 4.49038L8.94574 4.78188L9.35197 4.49038ZM23.5258 26.1582C23.7417 26.8059 23.9433 27.8836 23.8604 29.0338C23.7776 30.1818 23.4156 31.3587 22.5517 32.268L23.2766 32.9568C24.3488 31.8284 24.7643 30.4027 24.8578 29.1057C24.9511 27.8111 24.7276 26.6015 24.4745 25.842L23.5258 26.1582ZM4.15825 32.5258C3.5189 32.3126 2.74106 31.7632 2.24133 30.9303C1.75236 30.1153 1.52152 29.0168 1.97448 27.6581L1.0258 27.3418C0.478621 28.9832 0.747781 30.3847 1.38384 31.4448C2.00915 32.487 2.98138 33.1876 3.84203 33.4744L4.15825 32.5258ZM8.32617 11.6355C8.80583 11.2162 8.74102 11.1694 9.24048 10.8955L8.75971 10.0187C8.13477 10.3613 8.00078 10.5917 7.66803 10.8826L8.32617 11.6355ZM9.42685 10.1966C9.2064 9.83548 8.97281 9.25791 8.96251 8.71204C8.95748 8.44592 9.00566 8.20533 9.11647 8.00043C9.22474 7.80021 9.40813 7.60511 9.7237 7.44732L9.27649 6.5529C8.79206 6.79511 8.45045 7.12976 8.23685 7.52476C8.02578 7.91507 7.95521 8.33517 7.96268 8.73093C7.97737 9.50881 8.29379 10.2597 8.57334 10.7176L9.42685 10.1966ZM15.7807 10.7417C16.6668 11.1744 17.5916 11.8203 18.535 12.7432L19.2343 12.0284C18.2238 11.0398 17.2128 10.3282 16.2195 9.8431L15.7807 10.7417ZM15.1465 7.35366C15.6228 7.82993 15.9189 8.26943 16.0127 8.67976C16.0979 9.05281 16.0316 9.4704 15.615 9.97349L16.3852 10.6113C16.9686 9.90676 17.1523 9.17821 16.9875 8.45703C16.8313 7.77311 16.3774 7.17029 15.8536 6.64656L15.1465 7.35366ZM9.50009 7.50011C9.70462 7.50011 9.95301 7.46799 10.2081 7.42812C10.4653 7.38792 10.7717 7.3326 11.083 7.28027L10.9172 6.29411C10.5865 6.3497 10.305 6.40084 10.0537 6.44012C9.80024 6.47973 9.6196 6.50011 9.50009 6.50011V7.50011ZM11.4063 6.49568L9.75821 4.19887L8.94574 4.78188L10.5939 7.07869L11.4063 6.49568ZM9.71723 3.68377L10.5299 2.05835L9.63551 1.61113L8.8228 3.23655L9.71723 3.68377ZM10.8065 2.01347L10.8597 2.06675L11.5668 1.35964L11.5136 1.30637L10.8065 2.01347ZM12.9592 1.4693L13.7443 2.05815L14.3443 1.25815L13.5592 0.669305L12.9592 1.4693ZM11.083 7.28027C11.9656 7.13188 12.9952 6.98933 13.9483 7.08855L14.0519 6.09392C12.9511 5.97934 11.8029 6.1452 10.9172 6.29411L11.083 7.28027ZM13.9483 7.08855C14.4348 7.13919 14.8849 7.25152 15.2765 7.44732L15.7237 6.5529C15.1966 6.28933 14.6224 6.15332 14.0519 6.09392L13.9483 7.08855ZM13.9413 2.51228L13.8397 3.44587L14.8338 3.55413L14.9355 2.62054L13.9413 2.51228ZM13.8397 3.44587L13.503 6.5371L14.4972 6.64537L14.8338 3.55413L13.8397 3.44587ZM14.0518 3.91089L15.503 4.91708L16.0728 4.09529L14.6216 3.08911L14.0518 3.91089ZM15.6653 5.55157L15.0529 6.77651L15.9473 7.22371L16.5598 5.99876L15.6653 5.55157ZM18.6212 12.8626C19.2629 14.1915 20.2852 16.8925 21.2805 19.6687L22.2219 19.3313C21.2303 16.5655 20.1905 13.8129 19.5217 12.4277L18.6212 12.8626ZM21.2805 19.6687C22.1507 22.0957 22.9921 24.5572 23.5258 26.1582L24.4745 25.842C23.9388 24.2351 23.0949 21.7664 22.2219 19.3313L21.2805 19.6687ZM21.3513 19.1999C20.9872 19.6852 20.3642 20.4421 19.6892 21.123C19.3518 21.4633 19.0079 21.778 18.682 22.0287C18.3502 22.284 18.0644 22.4515 17.842 22.5257L18.1582 23.4743C18.5358 23.3485 18.9251 23.1035 19.2918 22.8213C19.6646 22.5345 20.0427 22.1867 20.3993 21.827C21.1123 21.1079 21.7649 20.3148 22.1511 19.8001L21.3513 19.1999ZM21.8854 32.5709C21.143 32.6479 20.1399 32.7109 18.9794 32.7591L19.0209 33.7583C20.1895 33.7097 21.2161 33.6457 21.9886 33.5655L21.8854 32.5709ZM18.9794 32.7591C16.3815 32.8671 13.0303 32.8998 10.1347 32.8568C8.68703 32.8353 7.35716 32.7949 6.29471 32.736C5.21399 32.6761 4.45655 32.5988 4.12141 32.515L3.87887 33.4852C4.3223 33.596 5.17688 33.6755 6.23933 33.7345C7.32005 33.7944 8.66448 33.8351 10.1199 33.8567C13.0305 33.8999 16.4008 33.8672 19.0209 33.7583L18.9794 32.7591ZM18.6151 27.319C19.3649 28.2239 20.407 30.616 18.6042 32.9533L19.3961 33.5641C21.5933 30.7154 20.3021 27.7877 19.3852 26.681L18.6151 27.319ZM9.24048 10.8955C10.2756 10.328 11.5551 9.92959 12.9761 9.99799L13.0241 8.99914C11.3845 8.92021 9.92319 9.38077 8.75971 10.0187L9.24048 10.8955ZM12.9761 9.99799C13.8551 10.0403 14.7975 10.2615 15.7807 10.7417L16.2195 9.8431C15.1153 9.30384 14.0401 9.04805 13.0241 8.99914L12.9761 9.99799ZM12.8142 9.03442C11.872 9.41185 9.88087 10.7765 9.02575 13.3419L9.97444 13.6581C10.7193 11.4235 12.4616 10.2529 13.186 9.96271L12.8142 9.03442ZM8.51502 15.1213C8.53445 15.199 8.54463 15.3723 8.50954 15.625C8.47593 15.8669 8.40592 16.1445 8.29814 16.4148C8.07287 16.9799 7.73391 17.395 7.34198 17.5257L7.65821 18.4743C8.46628 18.205 8.96066 17.4534 9.22705 16.7852C9.3651 16.4388 9.45551 16.0831 9.50003 15.7625C9.54306 15.4527 9.54907 15.1344 9.48517 14.8787L8.51502 15.1213ZM12.0212 14.1437C12.2625 14.9481 12.5258 16.1997 12.5376 17.3303C12.5436 17.8963 12.4859 18.4022 12.3505 18.7974C12.2163 19.1891 12.0218 19.4301 11.7765 19.5528L12.2237 20.4472C12.7784 20.1699 13.1089 19.6693 13.2965 19.1214C13.483 18.5771 13.5441 17.9454 13.5376 17.3198C13.5244 16.067 13.2377 14.7186 12.979 13.8563L12.0212 14.1437ZM15.0015 12.4627C14.9124 13.6539 14.9293 15.4169 15.294 16.8023C15.4746 17.4882 15.7582 18.1527 16.2204 18.5909C16.4587 18.8169 16.7473 18.9851 17.088 19.0569C17.4275 19.1283 17.7866 19.0972 18.1571 18.9747L17.8431 18.0253C17.6089 18.1028 17.4308 18.1071 17.294 18.0783C17.1584 18.0498 17.0316 17.9821 16.9085 17.8653C16.6479 17.6182 16.4249 17.1701 16.2611 16.5477C15.9369 15.3164 15.9133 13.6794 15.9987 12.5373L15.0015 12.4627ZM1.97738 27.6491L4.47738 19.6491L3.5229 19.3509L1.0229 27.3508L1.97738 27.6491ZM4.46438 19.6857L7.00298 13.3392L6.0745 12.9678L3.5359 19.3143L4.46438 19.6857ZM11.6465 3.14641C11.2443 3.54847 11.1494 4.18084 11.1626 4.74913C11.1765 5.34837 11.3141 6.02366 11.5257 6.65814L12.4743 6.34186C12.2858 5.77634 12.1734 5.20163 12.1623 4.72587C12.1505 4.21916 12.2556 3.95153 12.3535 3.85359L11.6465 3.14641ZM15.503 4.91708C15.7074 5.05878 15.7765 5.32913 15.6653 5.55157L16.5598 5.99876C16.8934 5.33146 16.6859 4.52039 16.0728 4.09529L15.503 4.91708ZM12.755 1.54178C12.7776 1.45158 12.8848 1.41352 12.9592 1.4693L13.5592 0.669305C12.9126 0.18441 11.9809 0.515215 11.7849 1.29924L12.755 1.54178ZM13.7443 2.05815C13.8856 2.1641 13.9605 2.33672 13.9413 2.51228L14.9355 2.62054C14.9928 2.09387 14.7681 1.57601 14.3443 1.25815L13.7443 2.05815ZM22.5517 32.268C22.3926 32.4354 22.1584 32.5426 21.8854 32.5709L21.9886 33.5655C22.4536 33.5173 22.9247 33.3273 23.2766 32.9568L22.5517 32.268ZM7.66803 10.8826C7.03348 11.4373 6.41754 12.1102 6.0745 12.9678L7.00298 13.3392C7.26098 12.6942 7.74229 12.1459 8.32617 11.6355L7.66803 10.8826ZM10.5299 2.05835C10.5826 1.95294 10.7231 1.93014 10.8065 2.01347L11.5136 1.30637C10.9476 0.740393 9.99346 0.895226 9.63551 1.61113L10.5299 2.05835ZM10.8597 2.06675C11.4808 2.68783 12.542 2.3939 12.755 1.54178L11.7849 1.29924C11.7604 1.39728 11.6383 1.4311 11.5668 1.35964L10.8597 2.06675ZM18.535 12.7432C18.5711 12.7785 18.6 12.8187 18.6212 12.8626L19.5217 12.4277C19.4494 12.278 19.3519 12.1434 19.2343 12.0284L18.535 12.7432ZM9.75821 4.19887C9.65001 4.04808 9.63423 3.84977 9.71723 3.68377L8.8228 3.23655C8.5738 3.73455 8.62113 4.32951 8.94574 4.78188L9.75821 4.19887Z" fill="black"/>
</svg>
